<svg id="svg" xmlns="http://www.w3.org/2000/svg" xmlns:xlink="http://www.w3.org/1999/xlink" width="400" height="147.95417348608837" viewBox="0, 0, 400,147.95417348608837"><g id="svgg"><path id="path0" d="M275.554 30.745 C 275.354 30.939,275.140 31.299,275.078 31.546 C 275.016 31.794,274.692 32.286,274.357 32.641 C 274.023 32.995,273.450 33.685,273.083 34.173 C 272.717 34.661,272.117 35.420,271.750 35.859 C 271.383 36.298,270.821 37.000,270.500 37.419 C 270.179 37.838,269.803 38.310,269.664 38.468 C 269.526 38.625,269.229 39.016,269.004 39.336 C 268.780 39.655,268.029 40.592,267.336 41.417 C 266.644 42.242,265.953 43.111,265.802 43.349 C 265.650 43.587,265.314 44.004,265.055 44.276 C 264.044 45.335,263.333 46.141,263.333 46.228 C 263.333 46.466,261.231 49.204,260.164 50.355 C 259.877 50.664,259.534 51.123,259.400 51.375 C 259.267 51.627,259.091 51.833,259.009 51.833 C 258.928 51.833,258.723 52.089,258.555 52.401 C 258.294 52.886,257.448 54.005,255.794 56.050 C 255.586 56.306,255.135 56.810,254.792 57.168 C 254.448 57.527,254.167 57.892,254.167 57.981 C 254.167 58.069,253.810 58.530,253.375 59.006 C 252.940 59.482,252.471 60.072,252.333 60.319 C 252.196 60.565,251.885 60.988,251.644 61.258 C 250.543 62.488,249.091 64.266,248.705 64.856 C 248.293 65.483,247.069 67.076,246.626 67.560 C 246.419 67.787,245.950 68.360,245.583 68.835 C 244.908 69.709,243.853 71.039,243.463 71.506 C 243.346 71.647,242.917 72.209,242.509 72.756 C 242.101 73.303,241.630 73.900,241.461 74.083 C 241.113 74.460,239.464 76.658,238.325 78.261 C 237.908 78.848,237.374 79.536,237.137 79.789 C 236.900 80.043,236.498 80.587,236.243 81.000 C 235.988 81.412,235.585 81.965,235.348 82.227 C 235.111 82.490,234.692 82.953,234.417 83.257 C 233.672 84.080,233.167 84.779,233.167 84.986 C 233.167 85.087,232.934 85.413,232.650 85.710 C 232.366 86.007,232.026 86.456,231.896 86.708 C 231.765 86.960,231.599 87.167,231.528 87.167 C 231.407 87.167,230.759 87.988,229.894 89.237 C 229.699 89.519,229.174 90.172,228.728 90.687 C 227.961 91.574,226.548 93.419,226.000 94.250 C 225.416 95.136,223.119 98.000,222.993 98.000 C 222.918 98.000,222.802 98.169,222.737 98.375 C 222.672 98.581,222.480 98.848,222.309 98.968 C 222.139 99.088,222.000 99.297,222.000 99.433 C 222.000 99.569,221.719 99.967,221.375 100.318 C 220.812 100.894,219.474 102.620,217.424 105.417 C 216.672 106.441,216.330 106.888,214.742 108.917 C 213.832 110.080,213.253 110.789,212.542 111.614 C 212.335 111.853,212.167 112.106,212.167 112.175 C 212.167 112.245,211.903 112.628,211.580 113.026 C 209.884 115.120,209.985 114.957,210.296 115.091 C 210.678 115.255,218.462 115.321,219.006 115.165 C 219.390 115.055,220.500 114.104,220.500 113.885 C 220.500 113.747,221.356 112.699,221.958 112.099 C 222.256 111.802,222.500 111.503,222.500 111.435 C 222.500 111.366,223.050 110.621,223.722 109.780 C 224.394 108.938,225.271 107.800,225.671 107.250 C 226.071 106.700,226.871 105.672,227.449 104.965 C 228.027 104.258,228.500 103.621,228.500 103.548 C 228.500 103.476,228.744 103.134,229.042 102.789 C 229.340 102.444,229.883 101.745,230.250 101.237 C 230.617 100.728,231.160 100.010,231.458 99.640 C 231.756 99.271,232.000 98.913,232.000 98.844 C 232.000 98.776,232.188 98.635,232.417 98.530 C 232.646 98.426,232.833 98.233,232.833 98.101 C 232.833 97.869,233.074 97.542,234.057 96.445 C 234.317 96.155,234.652 95.729,234.802 95.500 C 234.952 95.271,235.673 94.333,236.405 93.417 C 237.137 92.500,237.964 91.412,238.243 91.000 C 239.034 89.828,240.372 88.167,240.525 88.167 C 240.600 88.167,240.768 87.923,240.898 87.625 C 241.028 87.327,241.315 86.895,241.536 86.666 C 241.757 86.436,242.008 86.128,242.094 85.980 C 242.180 85.833,242.456 85.458,242.709 85.148 C 243.389 84.311,244.835 82.458,245.500 81.571 C 245.821 81.143,246.440 80.378,246.875 79.870 C 247.310 79.363,247.667 78.889,247.667 78.818 C 247.667 78.746,247.948 78.348,248.292 77.933 C 249.301 76.715,250.380 75.334,250.917 74.571 C 251.192 74.180,251.998 73.177,252.708 72.341 C 253.419 71.506,254.000 70.744,254.000 70.649 C 254.000 70.412,256.498 67.324,256.776 67.217 C 256.899 67.170,257.000 67.035,257.000 66.918 C 257.000 66.722,258.185 65.172,258.875 64.465 C 259.035 64.301,259.167 64.089,259.167 63.993 C 259.167 63.898,259.467 63.526,259.833 63.167 C 260.200 62.807,260.500 62.433,260.500 62.335 C 260.500 62.237,260.610 62.114,260.744 62.063 C 260.878 62.011,261.039 61.808,261.101 61.611 C 261.164 61.413,261.917 60.371,262.774 59.294 C 263.632 58.218,264.333 57.260,264.333 57.165 C 264.333 57.070,264.502 56.916,264.708 56.821 C 264.915 56.727,265.212 56.372,265.369 56.033 C 265.660 55.404,267.625 52.984,267.920 52.890 C 268.591 52.678,268.570 51.610,268.528 83.614 C 268.503 102.494,268.548 114.173,268.645 114.318 C 268.879 114.668,275.790 114.671,276.011 114.322 C 276.193 114.033,276.224 30.548,276.042 30.457 C 275.973 30.423,275.753 30.552,275.554 30.745 M26.667 35.013 C 26.254 35.089,25.317 35.233,24.583 35.332 C 23.850 35.431,22.818 35.660,22.291 35.839 C 21.764 36.019,21.178 36.167,20.991 36.167 C 20.803 36.167,20.353 36.317,19.991 36.500 C 19.629 36.683,19.037 36.983,18.675 37.167 C 18.313 37.350,17.946 37.500,17.859 37.500 C 17.687 37.500,15.835 38.596,14.720 39.357 C 14.337 39.619,13.946 39.833,13.852 39.833 C 13.758 39.833,13.359 40.139,12.966 40.512 C 12.572 40.886,12.044 41.268,11.792 41.362 C 11.540 41.456,11.333 41.657,11.333 41.808 C 11.333 41.959,10.914 42.533,10.402 43.083 C 9.890 43.633,9.239 44.421,8.955 44.833 C 8.671 45.246,8.390 45.621,8.331 45.667 C 8.028 45.902,6.542 49.726,6.032 51.583 C 5.043 55.185,5.287 60.613,6.586 63.922 C 8.103 67.781,7.988 67.609,11.030 70.617 C 13.405 72.967,13.361 72.929,13.915 73.068 C 14.170 73.132,14.612 73.362,14.898 73.580 C 15.183 73.797,16.000 74.273,16.713 74.638 C 17.426 75.002,18.111 75.385,18.235 75.488 C 18.360 75.591,18.826 75.778,19.272 75.903 C 19.718 76.027,20.496 76.294,21.000 76.495 C 21.504 76.695,22.174 76.936,22.489 77.030 C 22.804 77.123,23.216 77.299,23.406 77.421 C 23.595 77.542,24.050 77.695,24.417 77.760 C 24.783 77.825,25.286 77.980,25.533 78.106 C 25.781 78.231,26.177 78.333,26.414 78.333 C 26.650 78.333,27.118 78.448,27.453 78.588 C 27.788 78.728,28.805 78.954,29.713 79.090 C 30.622 79.227,31.521 79.422,31.713 79.525 C 32.069 79.715,33.272 80.052,34.750 80.374 C 35.637 80.567,39.325 81.743,39.800 81.985 C 40.480 82.330,41.806 82.837,42.458 83.001 C 42.848 83.099,43.167 83.248,43.167 83.332 C 43.167 83.416,43.424 83.555,43.738 83.642 C 45.139 84.029,49.009 87.373,49.262 88.417 C 49.329 88.692,49.523 89.096,49.692 89.314 C 49.861 89.533,50.000 89.842,50.000 90.002 C 50.000 90.162,50.131 90.583,50.292 90.938 C 50.540 91.488,50.583 92.110,50.583 95.138 C 50.583 98.332,50.554 98.715,50.292 98.907 C 50.131 99.024,50.000 99.331,50.000 99.589 C 50.000 100.202,49.112 102.011,48.478 102.690 C 48.203 102.984,47.869 103.437,47.735 103.696 C 47.601 103.955,47.421 104.167,47.335 104.167 C 47.249 104.167,46.594 104.678,45.881 105.302 C 43.833 107.094,40.495 108.539,37.957 108.731 C 37.245 108.785,36.343 108.910,35.951 109.009 C 34.740 109.314,27.368 108.885,25.833 108.420 C 25.421 108.295,24.584 108.111,23.974 108.011 C 22.805 107.819,18.482 106.172,18.071 105.762 C 17.939 105.630,17.663 105.469,17.457 105.405 C 17.252 105.340,16.770 105.073,16.388 104.811 C 16.005 104.549,15.500 104.262,15.267 104.173 C 15.033 104.084,14.483 103.739,14.046 103.407 C 13.608 103.074,12.826 102.528,12.308 102.193 C 11.281 101.528,10.179 100.611,8.622 99.125 C 7.343 97.904,6.596 98.052,6.095 99.629 C 6.031 99.833,5.911 100.000,5.830 100.000 C 5.749 100.000,5.439 100.356,5.142 100.792 C 4.612 101.568,4.039 102.243,3.125 103.169 C 2.557 103.745,2.520 104.414,3.042 104.679 C 3.248 104.784,3.646 105.105,3.927 105.393 C 4.208 105.681,4.871 106.217,5.401 106.583 C 6.397 107.272,7.275 107.974,7.956 108.625 C 8.172 108.831,8.455 109.000,8.584 109.000 C 8.714 109.000,8.992 109.185,9.202 109.410 C 9.518 109.750,10.675 110.450,13.417 111.957 C 14.755 112.693,19.021 114.500,19.420 114.500 C 19.550 114.500,19.902 114.608,20.203 114.740 C 21.029 115.102,23.643 115.620,27.833 116.254 C 30.994 116.732,37.092 116.481,40.265 115.743 C 41.265 115.511,42.533 115.222,43.083 115.101 C 43.633 114.980,44.308 114.758,44.583 114.608 C 44.858 114.458,45.210 114.335,45.365 114.334 C 45.520 114.334,45.694 114.257,45.752 114.163 C 45.810 114.069,46.358 113.741,46.970 113.434 C 47.583 113.126,48.308 112.753,48.583 112.605 C 48.858 112.457,49.150 112.335,49.231 112.334 C 49.312 112.334,49.543 112.165,49.744 111.958 C 49.945 111.752,50.501 111.283,50.981 110.917 C 52.795 109.529,55.080 106.957,55.917 105.362 C 56.192 104.838,56.548 104.225,56.708 104.001 C 56.869 103.776,57.000 103.467,57.000 103.314 C 57.000 103.160,57.227 102.483,57.504 101.809 C 57.781 101.135,58.054 100.246,58.110 99.833 C 58.166 99.421,58.321 98.957,58.454 98.803 C 59.320 97.805,58.674 88.941,57.570 86.667 C 56.745 84.966,56.333 83.960,56.333 83.646 C 56.333 83.474,56.267 83.333,56.186 83.333 C 56.105 83.333,55.786 82.989,55.478 82.568 C 54.916 81.803,52.172 79.001,51.983 79.000 C 51.928 79.000,51.647 78.775,51.360 78.500 C 51.072 78.225,50.742 77.999,50.627 77.997 C 50.511 77.996,50.240 77.808,50.024 77.580 C 49.808 77.353,49.561 77.167,49.474 77.167 C 49.388 77.167,49.040 77.027,48.700 76.856 C 45.825 75.407,44.656 74.853,44.083 74.670 C 43.717 74.553,43.342 74.399,43.250 74.328 C 43.158 74.258,42.408 73.992,41.583 73.738 C 40.758 73.484,39.933 73.184,39.750 73.071 C 39.567 72.958,39.079 72.817,38.667 72.757 C 38.254 72.698,37.654 72.545,37.333 72.418 C 36.814 72.212,34.590 71.726,32.755 71.416 C 32.391 71.355,31.791 71.208,31.422 71.091 C 31.052 70.973,30.037 70.712,29.167 70.510 C 26.658 69.929,23.809 68.891,21.800 67.827 C 21.461 67.647,21.099 67.500,20.996 67.500 C 20.801 67.500,18.603 66.255,18.167 65.897 C 14.153 62.604,12.913 59.443,13.498 54.000 C 13.788 51.304,14.165 50.239,15.304 48.906 C 15.387 48.809,15.553 48.546,15.672 48.323 C 15.878 47.937,16.564 47.141,17.217 46.531 C 17.382 46.376,17.719 46.057,17.967 45.821 C 18.528 45.286,21.719 43.674,23.167 43.194 C 25.852 42.305,31.522 42.051,35.025 42.665 C 37.683 43.130,41.594 44.229,42.361 44.726 C 42.575 44.865,43.186 45.140,43.720 45.339 C 44.253 45.537,44.727 45.798,44.774 45.918 C 44.820 46.038,45.047 46.184,45.279 46.242 C 45.511 46.300,45.899 46.483,46.142 46.648 C 46.385 46.813,47.071 47.273,47.667 47.670 C 49.559 48.931,50.067 49.300,50.750 49.904 C 51.722 50.764,51.944 50.694,52.960 49.203 C 53.442 48.495,54.061 47.663,54.335 47.352 C 54.609 47.042,54.833 46.730,54.833 46.659 C 54.833 46.588,55.133 46.150,55.500 45.687 C 56.432 44.508,56.397 44.399,54.658 43.070 C 53.828 42.436,53.059 41.838,52.949 41.742 C 52.840 41.646,52.337 41.325,51.833 41.028 C 50.432 40.204,50.288 40.112,49.780 39.708 C 49.520 39.502,49.199 39.333,49.065 39.333 C 48.932 39.333,48.345 39.071,47.761 38.750 C 47.177 38.429,46.590 38.167,46.456 38.167 C 46.321 38.167,46.033 38.027,45.814 37.857 C 45.396 37.530,41.600 36.167,41.110 36.167 C 40.953 36.167,40.398 36.017,39.877 35.833 C 39.355 35.650,38.583 35.500,38.161 35.500 C 37.739 35.500,36.837 35.352,36.155 35.171 C 34.821 34.816,28.322 34.708,26.667 35.013 M297.875 35.617 L 297.500 35.985 297.500 77.742 C 297.500 105.470,297.556 119.500,297.667 119.500 C 297.758 119.500,297.833 119.404,297.833 119.288 C 297.833 119.171,298.211 118.665,298.672 118.163 C 299.134 117.661,299.670 116.950,299.863 116.583 C 300.057 116.217,300.532 115.637,300.920 115.296 C 301.307 114.955,301.753 114.404,301.910 114.073 C 302.068 113.741,302.321 113.345,302.473 113.191 C 302.625 113.038,303.112 112.426,303.554 111.831 C 304.740 110.238,305.699 109.167,305.941 109.167 C 306.058 109.167,306.235 108.867,306.333 108.500 C 306.432 108.133,306.566 107.833,306.631 107.833 C 306.697 107.833,307.313 107.103,308.000 106.212 C 308.688 105.321,309.522 104.327,309.855 104.004 C 310.187 103.681,310.712 103.042,311.022 102.583 C 311.719 101.551,312.449 100.597,313.017 99.976 C 313.255 99.716,313.778 99.052,314.179 98.501 C 314.580 97.951,314.956 97.500,315.013 97.500 C 315.071 97.500,315.332 97.162,315.592 96.750 C 315.853 96.337,316.126 96.000,316.198 96.000 C 316.270 96.000,316.513 95.719,316.737 95.375 C 316.962 95.031,317.525 94.341,317.989 93.842 C 318.454 93.343,318.833 92.866,318.833 92.782 C 318.833 92.622,320.980 89.836,321.571 89.229 C 322.108 88.677,322.542 88.142,323.041 87.417 C 325.444 83.919,325.875 83.699,327.002 85.401 C 327.391 85.988,327.925 86.628,328.188 86.823 C 328.451 87.017,328.667 87.287,328.667 87.422 C 328.667 87.556,328.819 87.819,329.006 88.006 C 329.193 88.193,329.995 89.149,330.790 90.131 C 331.584 91.113,332.331 92.016,332.450 92.137 C 332.569 92.258,332.667 92.430,332.667 92.519 C 332.667 92.607,332.948 92.964,333.292 93.312 C 333.635 93.659,334.254 94.371,334.667 94.895 C 335.079 95.418,335.738 96.237,336.132 96.715 C 336.525 97.192,336.986 97.796,337.155 98.056 C 337.325 98.316,337.791 98.909,338.190 99.375 C 338.590 99.840,339.237 100.602,339.629 101.069 C 340.021 101.535,340.596 102.217,340.907 102.583 C 341.218 102.950,341.753 103.625,342.095 104.083 C 342.438 104.542,342.819 104.977,342.942 105.050 C 343.066 105.123,343.167 105.265,343.167 105.365 C 343.167 105.464,343.448 105.871,343.792 106.267 C 344.135 106.664,344.717 107.365,345.083 107.825 C 345.450 108.284,345.991 108.945,346.285 109.292 C 346.579 109.640,347.244 110.485,347.763 111.170 C 349.074 112.904,349.820 113.816,350.502 114.522 L 351.088 115.127 354.336 115.244 C 357.410 115.355,360.175 115.284,360.496 115.086 C 360.576 115.037,360.267 114.612,359.810 114.143 C 359.353 113.674,358.855 113.093,358.704 112.853 C 358.552 112.613,358.045 111.967,357.576 111.417 C 357.107 110.867,356.607 110.244,356.465 110.033 C 356.323 109.822,355.788 109.147,355.276 108.533 C 354.764 107.919,353.855 106.828,353.256 106.109 C 352.657 105.391,352.167 104.740,352.167 104.664 C 352.167 104.588,351.960 104.311,351.708 104.049 C 351.058 103.373,350.475 102.675,349.998 102.000 C 349.772 101.679,349.229 101.022,348.793 100.540 C 348.357 100.058,348.000 99.551,348.000 99.415 C 348.000 99.278,347.937 99.167,347.861 99.167 C 347.784 99.167,347.299 98.660,346.783 98.042 C 346.268 97.423,345.355 96.328,344.756 95.609 C 344.157 94.891,343.667 94.224,343.667 94.129 C 343.667 94.033,343.498 93.785,343.292 93.577 C 343.085 93.369,342.617 92.852,342.250 92.428 C 341.883 92.003,341.377 91.434,341.125 91.163 C 340.873 90.892,340.667 90.602,340.667 90.520 C 340.667 90.438,340.348 90.031,339.958 89.615 C 339.265 88.876,338.164 87.494,337.667 86.738 C 337.385 86.311,336.717 85.497,335.792 84.455 C 335.448 84.068,335.167 83.658,335.167 83.543 C 335.167 83.427,335.096 83.333,335.010 83.333 C 334.924 83.333,334.141 82.415,333.271 81.292 C 332.401 80.169,331.496 79.015,331.261 78.727 C 330.739 78.088,330.709 77.439,331.187 77.105 C 331.381 76.969,331.662 76.672,331.812 76.446 C 332.903 74.794,334.271 72.904,334.750 72.386 C 334.933 72.188,335.383 71.601,335.750 71.081 C 336.117 70.561,336.885 69.586,337.458 68.914 C 338.031 68.243,338.500 67.620,338.500 67.531 C 338.500 67.442,338.612 67.326,338.750 67.273 C 338.887 67.220,339.000 67.073,339.000 66.945 C 339.000 66.818,339.494 66.122,340.098 65.398 C 340.702 64.675,341.448 63.708,341.756 63.250 C 342.064 62.792,342.463 62.326,342.643 62.216 C 342.823 62.106,343.020 61.787,343.082 61.508 C 343.143 61.229,343.253 61.000,343.326 61.000 C 343.453 61.000,345.115 58.890,345.687 58.003 C 345.836 57.772,346.270 57.248,346.653 56.839 C 347.036 56.429,347.612 55.717,347.933 55.255 C 349.087 53.595,349.342 53.245,349.633 52.917 C 349.796 52.733,350.376 51.992,350.923 51.269 C 351.469 50.546,352.160 49.646,352.457 49.269 C 352.754 48.892,353.124 48.396,353.278 48.167 C 353.433 47.938,353.644 47.675,353.747 47.583 C 353.850 47.492,354.209 47.004,354.544 46.500 C 354.879 45.996,355.417 45.283,355.740 44.917 C 356.062 44.550,356.607 43.837,356.951 43.333 C 357.295 42.829,358.009 41.923,358.538 41.319 C 359.726 39.963,359.756 39.640,358.746 39.035 C 358.004 38.591,355.822 37.014,355.333 36.569 C 353.874 35.241,353.451 35.166,352.973 36.152 C 352.836 36.436,352.504 36.939,352.237 37.269 C 351.969 37.599,351.503 38.172,351.201 38.542 C 350.899 38.912,350.568 39.373,350.466 39.566 C 350.134 40.190,348.954 41.500,348.724 41.500 C 348.601 41.500,348.500 41.651,348.500 41.834 C 348.500 42.145,345.828 45.670,344.585 47.000 C 344.285 47.321,343.712 48.054,343.312 48.629 C 341.993 50.523,341.825 50.743,341.159 51.457 C 340.797 51.845,340.500 52.230,340.500 52.312 C 340.500 52.393,340.219 52.760,339.875 53.128 C 339.531 53.495,338.987 54.189,338.667 54.670 C 338.346 55.152,337.927 55.704,337.735 55.898 C 337.544 56.091,337.119 56.644,336.790 57.125 C 336.461 57.606,335.841 58.412,335.411 58.914 C 334.982 59.417,334.357 60.201,334.023 60.656 C 332.606 62.587,331.447 64.095,331.260 64.250 C 331.149 64.342,330.787 64.844,330.454 65.366 C 330.121 65.889,329.489 66.695,329.049 67.159 C 328.070 68.190,327.500 68.916,327.500 69.131 C 327.500 69.220,327.375 69.395,327.222 69.521 C 327.070 69.647,326.699 70.125,326.398 70.583 C 326.097 71.042,325.472 71.825,325.009 72.325 C 324.546 72.824,324.167 73.287,324.167 73.354 C 324.167 73.421,324.073 73.575,323.958 73.696 C 323.843 73.818,323.562 74.197,323.333 74.541 C 323.104 74.884,322.861 75.165,322.794 75.166 C 322.726 75.166,322.483 75.448,322.254 75.792 C 322.024 76.135,321.536 76.792,321.170 77.250 C 320.803 77.708,320.243 78.458,319.924 78.917 C 319.605 79.375,319.079 80.035,318.755 80.384 C 318.432 80.733,318.167 81.081,318.167 81.158 C 318.167 81.234,317.717 81.774,317.168 82.357 C 316.619 82.940,316.169 83.520,316.168 83.646 C 316.167 83.773,315.923 84.160,315.625 84.506 C 315.327 84.853,314.633 85.753,314.083 86.508 C 313.533 87.262,312.783 88.201,312.417 88.594 C 311.735 89.325,310.706 90.611,310.048 91.555 C 309.421 92.454,309.103 92.862,308.545 93.484 C 308.249 93.813,307.781 94.383,307.505 94.750 C 307.230 95.117,306.947 95.492,306.877 95.583 C 306.807 95.675,306.620 96.031,306.461 96.375 C 306.125 97.103,306.004 97.132,305.419 96.625 L 304.987 96.250 304.992 66.000 C 304.995 49.362,304.935 35.652,304.858 35.531 C 304.576 35.092,298.333 35.169,297.875 35.617 M75.496 35.928 C 75.283 36.487,75.277 114.820,75.490 115.156 C 75.691 115.475,82.964 115.510,83.460 115.195 C 83.624 115.091,83.678 112.975,83.710 105.537 C 83.745 97.278,83.784 95.978,84.003 95.759 C 84.217 95.545,85.190 95.495,90.355 95.434 C 96.218 95.366,98.917 95.177,101.583 94.647 C 104.220 94.124,105.281 93.885,105.461 93.774 C 105.571 93.706,106.094 93.580,106.623 93.494 C 107.151 93.409,107.808 93.232,108.083 93.102 C 108.358 92.972,109.296 92.520,110.167 92.099 C 111.037 91.678,111.842 91.333,111.953 91.333 C 113.155 91.333,118.341 87.109,120.823 84.109 C 121.395 83.417,121.913 82.828,121.973 82.801 C 122.279 82.660,124.771 77.568,124.975 76.667 C 125.069 76.254,125.377 75.242,125.661 74.417 C 125.945 73.592,126.249 72.354,126.337 71.667 C 126.426 70.979,126.590 70.004,126.702 69.500 C 127.449 66.148,126.779 57.644,125.491 54.114 C 125.221 53.375,125.000 52.630,125.000 52.459 C 125.000 52.289,124.550 51.370,124.000 50.417 C 123.450 49.464,123.000 48.613,123.000 48.527 C 123.000 47.980,117.669 42.500,117.137 42.500 C 117.026 42.500,116.734 42.308,116.489 42.073 C 116.004 41.608,115.487 41.302,113.841 40.509 C 113.249 40.223,112.649 39.890,112.508 39.767 C 112.366 39.644,112.063 39.505,111.833 39.457 C 111.604 39.410,110.779 39.131,110.000 38.837 C 109.221 38.543,108.343 38.232,108.050 38.146 C 107.757 38.059,107.307 37.879,107.050 37.746 C 106.793 37.612,106.387 37.502,106.147 37.501 C 105.907 37.500,105.253 37.354,104.695 37.176 C 104.137 36.997,103.208 36.800,102.631 36.737 C 102.055 36.674,101.442 36.549,101.268 36.460 C 100.950 36.295,97.457 35.947,93.333 35.671 C 92.096 35.588,87.613 35.515,83.371 35.510 L 75.658 35.500 75.496 35.928 M142.417 35.622 C 142.233 35.668,142.028 35.790,141.961 35.894 C 141.726 36.257,141.814 114.535,142.049 115.000 L 142.261 115.417 145.890 115.391 C 147.886 115.376,149.702 115.319,149.926 115.263 L 150.333 115.160 150.333 75.433 L 150.333 35.706 149.958 35.605 C 149.515 35.486,142.901 35.501,142.417 35.622 M162.000 35.663 C 161.671 35.874,161.655 42.721,161.983 43.049 C 162.135 43.202,164.999 43.250,173.967 43.250 C 186.040 43.250,186.138 43.255,186.434 43.917 C 186.621 44.333,186.464 114.277,186.276 114.766 C 186.008 115.461,194.036 115.864,194.711 115.189 C 194.872 115.028,194.925 107.324,194.955 79.376 C 194.988 49.045,195.029 43.733,195.228 43.534 C 195.425 43.337,197.354 43.295,207.140 43.275 C 215.705 43.257,218.868 43.199,219.009 43.058 C 219.201 42.866,219.257 35.947,219.069 35.643 C 218.947 35.445,162.309 35.465,162.000 35.663 M376.614 35.608 C 376.387 35.836,376.480 114.943,376.708 115.130 C 377.029 115.392,384.022 115.589,384.472 115.348 L 384.834 115.155 384.792 75.369 L 384.750 35.583 380.739 35.539 C 378.533 35.514,376.677 35.546,376.614 35.608 M98.417 43.593 C 101.839 43.993,106.785 45.244,107.667 45.932 C 107.804 46.039,108.104 46.183,108.333 46.250 C 109.353 46.552,111.478 47.884,112.410 48.806 C 112.903 49.294,113.071 49.458,113.725 50.091 C 114.815 51.146,116.658 53.638,116.672 54.076 C 116.675 54.171,116.823 54.550,117.000 54.917 C 117.177 55.283,117.325 55.733,117.329 55.917 C 117.332 56.100,117.454 56.475,117.600 56.750 C 117.745 57.025,117.970 57.887,118.100 58.667 C 118.229 59.446,118.405 60.458,118.491 60.917 C 118.695 62.009,118.703 66.475,118.503 67.750 C 117.986 71.044,117.835 71.812,117.597 72.370 C 117.452 72.710,117.333 73.149,117.333 73.345 C 117.333 73.888,115.686 77.527,115.227 78.000 C 115.004 78.229,114.590 78.777,114.307 79.216 C 113.814 79.981,113.427 80.401,111.797 81.939 C 111.144 82.555,109.667 83.586,109.000 83.891 C 108.862 83.954,108.412 84.223,108.000 84.488 C 107.167 85.025,105.890 85.660,105.000 85.982 C 102.786 86.781,102.036 86.994,100.885 87.152 C 100.169 87.251,98.833 87.440,97.917 87.574 C 96.740 87.746,94.674 87.820,90.886 87.825 C 87.853 87.830,85.337 87.903,85.097 87.995 C 84.749 88.127,84.590 88.085,84.211 87.759 L 83.750 87.362 83.706 65.612 L 83.661 43.862 84.122 43.493 L 84.583 43.124 90.417 43.232 C 93.846 43.295,97.143 43.444,98.417 43.593 " stroke="none" fill="#242122" fill-rule="evenodd"></path></g></svg>